<?xml version="1.0" encoding="utf-8"?>
<!-- Generator: Adobe Illustrator 25.2.1, SVG Export Plug-In . SVG Version: 6.00 Build 0)  -->
<svg version="1.1" id="Layer_1" xmlns="http://www.w3.org/2000/svg" xmlns:xlink="http://www.w3.org/1999/xlink" x="0px" y="0px"
	 viewBox="0 0 225.9 225.9" style="enable-background:new 0 0 225.9 225.9;" xml:space="preserve">
<style type="text/css">
	.st0{fill:#30BB97;}
</style>
<circle class="st0" cx="171.6" cy="79.9" r="1.9"/>
<circle class="st0" cx="196.3" cy="79.9" r="1.9"/>
<circle class="st0" cx="207.8" cy="37.2" r="1.9"/>
<circle class="st0" cx="196.3" cy="55.3" r="1.9"/>
<circle class="st0" cx="219.7" cy="45.8" r="1.9"/>
<circle class="st0" cx="218.2" cy="23.9" r="1.9"/>
<circle class="st0" cx="251.6" cy="54.3" r="1.9"/>
<circle class="st0" cx="240.1" cy="32.4" r="1.9"/>
<circle class="st0" cx="184.8" cy="31.2" r="1.9"/>
<ellipse transform="matrix(0.8861 -0.4635 0.4635 0.8861 14.2593 83.2916)" class="st0" cx="176.6" cy="12.6" rx="3.6" ry="3.6"/>
<circle class="st0" cx="190.6" cy="17.7" r="2.3"/>
<ellipse transform="matrix(0.8861 -0.4635 0.4635 0.8861 19.8808 93.8206)" class="st0" cx="200.8" cy="6.5" rx="3.8" ry="3.8"/>
<ellipse transform="matrix(0.8861 -0.4635 0.4635 0.8861 21.151 107.1899)" class="st0" cx="228.7" cy="10.6" rx="1.9" ry="1.9"/>
<ellipse transform="matrix(0.8861 -0.4635 0.4635 0.8861 20.6854 101.7)" class="st0" cx="217.3" cy="8.8" rx="1.9" ry="1.9"/>
<circle class="st0" cx="62.1" cy="198.3" r="1.9"/>
<circle class="st0" cx="49.4" cy="177.1" r="1.9"/>
<circle class="st0" cx="41.3" cy="168.6" r="1.9"/>
<circle class="st0" cx="28.4" cy="189.7" r="1.9"/>
<ellipse transform="matrix(7.911923e-02 -0.9969 0.9969 7.911923e-02 -86.9652 87.3097)" class="st0" cx="3.8" cy="90.7" rx="1.9" ry="1.9"/>
<circle class="st0" cx="26.2" cy="163.9" r="1.9"/>
<circle class="st0" cx="43.6" cy="202" r="1.9"/>
<ellipse transform="matrix(0.5224 -0.8527 0.8527 0.5224 -171.1764 131.5528)" class="st0" cx="31.8" cy="218.6" rx="3.6" ry="3.6"/>
<circle class="st0" cx="29" cy="204" r="2.3"/>
<ellipse transform="matrix(0.5224 -0.8527 0.8527 0.5224 -164.6197 108.0082)" class="st0" cx="14.1" cy="201" rx="3.8" ry="3.8"/>
<ellipse transform="matrix(0.5224 -0.8527 0.8527 0.5224 -151.3527 99.7108)" class="st0" cx="13.3" cy="185" rx="1.9" ry="1.9"/>
<circle class="st0" cx="-9.5" cy="195.9" r="1.9"/>
<circle class="st0" cx="-1.5" cy="110.2" r="1.9"/>
<ellipse transform="matrix(0.5322 -0.8466 0.8466 0.5322 -95.3408 74.1826)" class="st0" cx="19.5" cy="123.4" rx="1.9" ry="1.9"/>
<circle class="st0" cx="30.6" cy="127.2" r="1.9"/>
<circle class="st0" cx="32.6" cy="102.6" r="1.9"/>
<ellipse transform="matrix(7.911927e-02 -0.9969 0.9969 7.911927e-02 -108.0942 181.4939)" class="st0" cx="44.2" cy="149.3" rx="1.9" ry="1.9"/>
<ellipse transform="matrix(7.911941e-02 -0.9969 0.9969 7.911941e-02 -81.7491 160.7675)" class="st0" cx="46.1" cy="124.6" rx="1.9" ry="1.9"/>
<circle class="st0" cx="13.5" cy="98.6" r="1.9"/>
<ellipse transform="matrix(7.911948e-02 -0.9969 0.9969 7.911948e-02 -63.1265 88.5341)" class="st0" cx="16.4" cy="78.4" rx="3.6" ry="3.6"/>
<circle class="st0" cx="25.5" cy="90.1" r="2.3"/>
<ellipse transform="matrix(7.911928e-02 -0.9969 0.9969 7.911928e-02 -48.8539 119.3239)" class="st0" cx="40.2" cy="86.1" rx="3.8" ry="3.8"/>
<ellipse transform="matrix(7.911935e-02 -0.9969 0.9969 7.911935e-02 -55.4041 140.0412)" class="st0" cx="48.1" cy="100" rx="1.9" ry="1.9"/>
<circle class="st0" cx="18.1" cy="176.8" r="1.9"/>
<circle class="st0" cx="3.1" cy="172.1" r="1.9"/>
<ellipse transform="matrix(0.5322 -0.8466 0.8466 0.5322 -113.1173 58.3867)" class="st0" cx="-3.7" cy="131.5" rx="1.9" ry="1.9"/>
<circle class="st0" cx="7.4" cy="135.4" r="1.9"/>
<ellipse transform="matrix(7.911927e-02 -0.9969 0.9969 7.911927e-02 -137.6027 165.9248)" class="st0" cx="21" cy="157.4" rx="1.9" ry="1.9"/>
<ellipse transform="matrix(7.911941e-02 -0.9969 0.9969 7.911941e-02 -111.2577 145.1984)" class="st0" cx="23" cy="132.8" rx="1.9" ry="1.9"/>
</svg>
