<?xml version="1.0" encoding="utf-8"?>
<!-- Generator: Adobe Illustrator 25.2.1, SVG Export Plug-In . SVG Version: 6.00 Build 0)  -->
<svg version="1.1" id="Слой_1" xmlns="http://www.w3.org/2000/svg" xmlns:xlink="http://www.w3.org/1999/xlink" x="0px" y="0px"
	 viewBox="0 0 613 769.5" style="enable-background:new 0 0 613 769.5;" xml:space="preserve">
<style type="text/css">
	.st0{fill:#30BB97;}
</style>
<g>
	<circle class="st0" cx="201.5" cy="153.5" r="3.5"/>
	<circle class="st0" cx="201.5" cy="63.5" r="3.5"/>
	<circle class="st0" cx="201.5" cy="135.5" r="3.5"/>
	<circle class="st0" cx="201.5" cy="117.5" r="3.5"/>
	<circle class="st0" cx="201.5" cy="99.5" r="3.5"/>
	<circle class="st0" cx="201.5" cy="81.5" r="3.5"/>
	<circle class="st0" cx="183.5" cy="153.5" r="3.5"/>
	<circle class="st0" cx="183.5" cy="63.5" r="3.5"/>
	<circle class="st0" cx="183.5" cy="135.5" r="3.5"/>
	<circle class="st0" cx="183.5" cy="117.5" r="3.5"/>
	<circle class="st0" cx="183.5" cy="99.5" r="3.5"/>
	<circle class="st0" cx="183.5" cy="81.5" r="3.5"/>
	<circle class="st0" cx="165.5" cy="153.5" r="3.5"/>
	<circle class="st0" cx="165.5" cy="63.5" r="3.5"/>
	<circle class="st0" cx="165.5" cy="135.5" r="3.5"/>
	<circle class="st0" cx="165.5" cy="117.5" r="3.5"/>
	<circle class="st0" cx="165.5" cy="99.5" r="3.5"/>
	<circle class="st0" cx="165.5" cy="81.5" r="3.5"/>
	<circle class="st0" cx="147.5" cy="153.5" r="3.5"/>
	<circle class="st0" cx="147.5" cy="63.5" r="3.5"/>
	<circle class="st0" cx="147.5" cy="135.5" r="3.5"/>
	<circle class="st0" cx="147.5" cy="117.5" r="3.5"/>
	<circle class="st0" cx="147.5" cy="99.5" r="3.5"/>
	<circle class="st0" cx="147.5" cy="81.5" r="3.5"/>
	<circle class="st0" cx="129.5" cy="153.5" r="3.5"/>
	<circle class="st0" cx="129.5" cy="63.5" r="3.5"/>
	<circle class="st0" cx="129.5" cy="135.5" r="3.5"/>
	<circle class="st0" cx="129.5" cy="117.5" r="3.5"/>
	<circle class="st0" cx="129.5" cy="99.5" r="3.5"/>
	<circle class="st0" cx="129.5" cy="81.5" r="3.5"/>
	<circle class="st0" cx="111.5" cy="153.5" r="3.5"/>
	<circle class="st0" cx="111.5" cy="63.5" r="3.5"/>
	<circle class="st0" cx="111.5" cy="135.5" r="3.5"/>
	<circle class="st0" cx="111.5" cy="117.5" r="3.5"/>
	<circle class="st0" cx="111.5" cy="99.5" r="3.5"/>
	<circle class="st0" cx="111.5" cy="81.5" r="3.5"/>
	<circle class="st0" cx="93.5" cy="153.5" r="3.5"/>
	<circle class="st0" cx="93.5" cy="63.5" r="3.5"/>
	<circle class="st0" cx="93.5" cy="135.5" r="3.5"/>
	<circle class="st0" cx="93.5" cy="117.5" r="3.5"/>
	<circle class="st0" cx="93.5" cy="99.5" r="3.5"/>
	<circle class="st0" cx="93.5" cy="81.5" r="3.5"/>
	<circle class="st0" cx="75.5" cy="63.5" r="3.5"/>
	<circle class="st0" cx="75.5" cy="135.5" r="3.5"/>
	<circle class="st0" cx="75.5" cy="117.5" r="3.5"/>
	<circle class="st0" cx="75.5" cy="99.5" r="3.5"/>
	<circle class="st0" cx="75.5" cy="81.5" r="3.5"/>
	<circle class="st0" cx="57.5" cy="63.5" r="3.5"/>
	<circle class="st0" cx="57.5" cy="117.5" r="3.5"/>
	<circle class="st0" cx="57.5" cy="99.5" r="3.5"/>
	<circle class="st0" cx="57.5" cy="81.5" r="3.5"/>
	<circle class="st0" cx="39.5" cy="63.5" r="3.5"/>
	<circle class="st0" cx="39.5" cy="99.5" r="3.5"/>
	<circle class="st0" cx="39.5" cy="81.5" r="3.5"/>
	<circle class="st0" cx="21.5" cy="63.5" r="3.5"/>
	<circle class="st0" cx="3.5" cy="63.5" r="3.5"/>
	<circle class="st0" cx="21.5" cy="81.5" r="3.5"/>
</g>
<circle class="st0" cx="601" cy="12" r="12"/>
<circle class="st0" cx="608" cy="764" r="3.5"/>
<circle class="st0" cx="608" cy="674" r="3.5"/>
<circle class="st0" cx="608" cy="746" r="3.5"/>
<circle class="st0" cx="608" cy="728" r="3.5"/>
<circle class="st0" cx="608" cy="710" r="3.5"/>
<circle class="st0" cx="608" cy="692" r="3.5"/>
<circle class="st0" cx="590" cy="764" r="3.5"/>
<circle class="st0" cx="590" cy="674" r="3.5"/>
<circle class="st0" cx="590" cy="746" r="3.5"/>
<circle class="st0" cx="590" cy="728" r="3.5"/>
<circle class="st0" cx="590" cy="710" r="3.5"/>
<circle class="st0" cx="590" cy="692" r="3.5"/>
<circle class="st0" cx="572" cy="764" r="3.5"/>
<circle class="st0" cx="572" cy="674" r="3.5"/>
<circle class="st0" cx="572" cy="746" r="3.5"/>
<circle class="st0" cx="572" cy="728" r="3.5"/>
<circle class="st0" cx="572" cy="710" r="3.5"/>
<circle class="st0" cx="572" cy="692" r="3.5"/>
<circle class="st0" cx="554" cy="764" r="3.5"/>
<circle class="st0" cx="554" cy="674" r="3.5"/>
<circle class="st0" cx="554" cy="746" r="3.5"/>
<circle class="st0" cx="554" cy="728" r="3.5"/>
<circle class="st0" cx="554" cy="710" r="3.5"/>
<circle class="st0" cx="554" cy="692" r="3.5"/>
<circle class="st0" cx="536" cy="764" r="3.5"/>
<circle class="st0" cx="536" cy="674" r="3.5"/>
<circle class="st0" cx="536" cy="746" r="3.5"/>
<circle class="st0" cx="536" cy="728" r="3.5"/>
<circle class="st0" cx="536" cy="710" r="3.5"/>
<circle class="st0" cx="536" cy="692" r="3.5"/>
<circle class="st0" cx="518" cy="764" r="3.5"/>
<circle class="st0" cx="518" cy="674" r="3.5"/>
<circle class="st0" cx="518" cy="746" r="3.5"/>
<circle class="st0" cx="518" cy="728" r="3.5"/>
<circle class="st0" cx="518" cy="710" r="3.5"/>
<circle class="st0" cx="518" cy="692" r="3.5"/>
<circle class="st0" cx="500" cy="764" r="3.5"/>
<circle class="st0" cx="500" cy="674" r="3.5"/>
<circle class="st0" cx="500" cy="746" r="3.5"/>
<circle class="st0" cx="500" cy="728" r="3.5"/>
<circle class="st0" cx="500" cy="710" r="3.5"/>
<circle class="st0" cx="500" cy="692" r="3.5"/>
<circle class="st0" cx="482" cy="674" r="3.5"/>
<circle class="st0" cx="482" cy="746" r="3.5"/>
<circle class="st0" cx="482" cy="728" r="3.5"/>
<circle class="st0" cx="482" cy="710" r="3.5"/>
<circle class="st0" cx="482" cy="692" r="3.5"/>
<circle class="st0" cx="464" cy="674" r="3.5"/>
<circle class="st0" cx="464" cy="728" r="3.5"/>
<circle class="st0" cx="464" cy="710" r="3.5"/>
<circle class="st0" cx="464" cy="692" r="3.5"/>
<circle class="st0" cx="446" cy="674" r="3.5"/>
<circle class="st0" cx="446" cy="710" r="3.5"/>
<circle class="st0" cx="446" cy="692" r="3.5"/>
<circle class="st0" cx="428" cy="674" r="3.5"/>
<circle class="st0" cx="410" cy="674" r="3.5"/>
<circle class="st0" cx="428" cy="692" r="3.5"/>
<g>
	<circle class="st0" cx="500" cy="658" r="3.5"/>
	<circle class="st0" cx="500" cy="568" r="3.5"/>
	<circle class="st0" cx="500" cy="640" r="3.5"/>
	<circle class="st0" cx="500" cy="622" r="3.5"/>
	<circle class="st0" cx="500" cy="604" r="3.5"/>
	<circle class="st0" cx="500" cy="586" r="3.5"/>
	<circle class="st0" cx="482" cy="658" r="3.5"/>
	<circle class="st0" cx="482" cy="568" r="3.5"/>
	<circle class="st0" cx="482" cy="640" r="3.5"/>
	<circle class="st0" cx="482" cy="622" r="3.5"/>
	<circle class="st0" cx="482" cy="604" r="3.5"/>
	<circle class="st0" cx="482" cy="586" r="3.5"/>
	<circle class="st0" cx="464" cy="658" r="3.5"/>
	<circle class="st0" cx="464" cy="568" r="3.5"/>
	<circle class="st0" cx="464" cy="640" r="3.5"/>
	<circle class="st0" cx="464" cy="622" r="3.5"/>
	<circle class="st0" cx="464" cy="604" r="3.5"/>
	<circle class="st0" cx="464" cy="586" r="3.5"/>
	<circle class="st0" cx="446" cy="658" r="3.5"/>
	<circle class="st0" cx="446" cy="568" r="3.5"/>
	<circle class="st0" cx="446" cy="640" r="3.5"/>
	<circle class="st0" cx="446" cy="622" r="3.5"/>
	<circle class="st0" cx="446" cy="604" r="3.5"/>
	<circle class="st0" cx="446" cy="586" r="3.5"/>
	<circle class="st0" cx="428" cy="658" r="3.5"/>
	<circle class="st0" cx="428" cy="568" r="3.5"/>
	<circle class="st0" cx="428" cy="640" r="3.5"/>
	<circle class="st0" cx="428" cy="622" r="3.5"/>
	<circle class="st0" cx="428" cy="604" r="3.5"/>
	<circle class="st0" cx="428" cy="586" r="3.5"/>
	<circle class="st0" cx="410" cy="658" r="3.5"/>
	<circle class="st0" cx="410" cy="568" r="3.5"/>
	<circle class="st0" cx="410" cy="640" r="3.5"/>
	<circle class="st0" cx="410" cy="622" r="3.5"/>
	<circle class="st0" cx="410" cy="604" r="3.5"/>
	<circle class="st0" cx="410" cy="586" r="3.5"/>
	<circle class="st0" cx="392" cy="658" r="3.5"/>
	<circle class="st0" cx="392" cy="568" r="3.5"/>
	<circle class="st0" cx="392" cy="640" r="3.5"/>
	<circle class="st0" cx="392" cy="622" r="3.5"/>
	<circle class="st0" cx="392" cy="604" r="3.5"/>
	<circle class="st0" cx="392" cy="586" r="3.5"/>
	<circle class="st0" cx="374" cy="568" r="3.5"/>
	<circle class="st0" cx="374" cy="640" r="3.5"/>
	<circle class="st0" cx="374" cy="622" r="3.5"/>
	<circle class="st0" cx="374" cy="604" r="3.5"/>
	<circle class="st0" cx="374" cy="586" r="3.5"/>
	<circle class="st0" cx="356" cy="568" r="3.5"/>
	<circle class="st0" cx="356" cy="622" r="3.5"/>
	<circle class="st0" cx="356" cy="604" r="3.5"/>
	<circle class="st0" cx="356" cy="586" r="3.5"/>
	<circle class="st0" cx="338" cy="568" r="3.5"/>
	<circle class="st0" cx="338" cy="604" r="3.5"/>
	<circle class="st0" cx="338" cy="586" r="3.5"/>
	<circle class="st0" cx="320" cy="568" r="3.5"/>
	<circle class="st0" cx="302" cy="568" r="3.5"/>
	<circle class="st0" cx="320" cy="586" r="3.5"/>
</g>
<circle class="st0" cx="608" cy="658" r="3.5"/>
<circle class="st0" cx="608" cy="568" r="3.5"/>
<circle class="st0" cx="608" cy="640" r="3.5"/>
<circle class="st0" cx="608" cy="622" r="3.5"/>
<circle class="st0" cx="608" cy="604" r="3.5"/>
<circle class="st0" cx="608" cy="586" r="3.5"/>
<circle class="st0" cx="590" cy="658" r="3.5"/>
<circle class="st0" cx="590" cy="568" r="3.5"/>
<circle class="st0" cx="590" cy="640" r="3.5"/>
<circle class="st0" cx="590" cy="622" r="3.5"/>
<circle class="st0" cx="590" cy="604" r="3.5"/>
<circle class="st0" cx="590" cy="586" r="3.5"/>
<circle class="st0" cx="572" cy="658" r="3.5"/>
<circle class="st0" cx="572" cy="568" r="3.5"/>
<circle class="st0" cx="572" cy="640" r="3.5"/>
<circle class="st0" cx="572" cy="622" r="3.5"/>
<circle class="st0" cx="572" cy="604" r="3.5"/>
<circle class="st0" cx="572" cy="586" r="3.5"/>
<circle class="st0" cx="554" cy="658" r="3.5"/>
<circle class="st0" cx="554" cy="568" r="3.5"/>
<circle class="st0" cx="554" cy="640" r="3.5"/>
<circle class="st0" cx="554" cy="622" r="3.5"/>
<circle class="st0" cx="554" cy="604" r="3.5"/>
<circle class="st0" cx="554" cy="586" r="3.5"/>
<circle class="st0" cx="536" cy="658" r="3.5"/>
<circle class="st0" cx="536" cy="568" r="3.5"/>
<circle class="st0" cx="536" cy="640" r="3.5"/>
<circle class="st0" cx="536" cy="622" r="3.5"/>
<circle class="st0" cx="536" cy="604" r="3.5"/>
<circle class="st0" cx="536" cy="586" r="3.5"/>
<circle class="st0" cx="518" cy="658" r="3.5"/>
<circle class="st0" cx="518" cy="568" r="3.5"/>
<circle class="st0" cx="518" cy="640" r="3.5"/>
<circle class="st0" cx="518" cy="622" r="3.5"/>
<circle class="st0" cx="518" cy="604" r="3.5"/>
<circle class="st0" cx="518" cy="586" r="3.5"/>
<circle class="st0" cx="608" cy="551" r="3.5"/>
<circle class="st0" cx="608" cy="461" r="3.5"/>
<circle class="st0" cx="608" cy="533" r="3.5"/>
<circle class="st0" cx="608" cy="515" r="3.5"/>
<circle class="st0" cx="608" cy="497" r="3.5"/>
<circle class="st0" cx="608" cy="479" r="3.5"/>
<circle class="st0" cx="590" cy="551" r="3.5"/>
<circle class="st0" cx="590" cy="461" r="3.5"/>
<circle class="st0" cx="590" cy="533" r="3.5"/>
<circle class="st0" cx="590" cy="515" r="3.5"/>
<circle class="st0" cx="590" cy="497" r="3.5"/>
<circle class="st0" cx="590" cy="479" r="3.5"/>
<circle class="st0" cx="572" cy="551" r="3.5"/>
<circle class="st0" cx="572" cy="461" r="3.5"/>
<circle class="st0" cx="572" cy="533" r="3.5"/>
<circle class="st0" cx="572" cy="515" r="3.5"/>
<circle class="st0" cx="572" cy="497" r="3.5"/>
<circle class="st0" cx="572" cy="479" r="3.5"/>
<circle class="st0" cx="554" cy="551" r="3.5"/>
<circle class="st0" cx="554" cy="461" r="3.5"/>
<circle class="st0" cx="554" cy="533" r="3.5"/>
<circle class="st0" cx="554" cy="515" r="3.5"/>
<circle class="st0" cx="554" cy="497" r="3.5"/>
<circle class="st0" cx="554" cy="479" r="3.5"/>
<circle class="st0" cx="536" cy="551" r="3.5"/>
<circle class="st0" cx="536" cy="461" r="3.5"/>
<circle class="st0" cx="536" cy="533" r="3.5"/>
<circle class="st0" cx="536" cy="515" r="3.5"/>
<circle class="st0" cx="536" cy="497" r="3.5"/>
<circle class="st0" cx="536" cy="479" r="3.5"/>
<circle class="st0" cx="518" cy="551" r="3.5"/>
<circle class="st0" cx="518" cy="461" r="3.5"/>
<circle class="st0" cx="518" cy="533" r="3.5"/>
<circle class="st0" cx="518" cy="515" r="3.5"/>
<circle class="st0" cx="518" cy="497" r="3.5"/>
<circle class="st0" cx="518" cy="479" r="3.5"/>
<circle class="st0" cx="500" cy="551" r="3.5"/>
<circle class="st0" cx="500" cy="461" r="3.5"/>
<circle class="st0" cx="500" cy="533" r="3.5"/>
<circle class="st0" cx="500" cy="515" r="3.5"/>
<circle class="st0" cx="500" cy="497" r="3.5"/>
<circle class="st0" cx="500" cy="479" r="3.5"/>
<circle class="st0" cx="482" cy="461" r="3.5"/>
<circle class="st0" cx="482" cy="533" r="3.5"/>
<circle class="st0" cx="482" cy="515" r="3.5"/>
<circle class="st0" cx="482" cy="497" r="3.5"/>
<circle class="st0" cx="482" cy="479" r="3.5"/>
<circle class="st0" cx="464" cy="461" r="3.5"/>
<circle class="st0" cx="464" cy="515" r="3.5"/>
<circle class="st0" cx="464" cy="497" r="3.5"/>
<circle class="st0" cx="464" cy="479" r="3.5"/>
<circle class="st0" cx="446" cy="461" r="3.5"/>
<circle class="st0" cx="446" cy="497" r="3.5"/>
<circle class="st0" cx="446" cy="479" r="3.5"/>
<circle class="st0" cx="428" cy="461" r="3.5"/>
<circle class="st0" cx="410" cy="461" r="3.5"/>
<circle class="st0" cx="428" cy="479" r="3.5"/>
<g>
	<circle class="st0" cx="500" cy="445" r="3.5"/>
	<circle class="st0" cx="500" cy="355" r="3.5"/>
	<circle class="st0" cx="500" cy="427" r="3.5"/>
	<circle class="st0" cx="500" cy="409" r="3.5"/>
	<circle class="st0" cx="500" cy="391" r="3.5"/>
	<circle class="st0" cx="500" cy="373" r="3.5"/>
	<circle class="st0" cx="482" cy="445" r="3.5"/>
	<circle class="st0" cx="482" cy="355" r="3.5"/>
	<circle class="st0" cx="482" cy="427" r="3.5"/>
	<circle class="st0" cx="482" cy="409" r="3.5"/>
	<circle class="st0" cx="482" cy="391" r="3.5"/>
	<circle class="st0" cx="482" cy="373" r="3.5"/>
	<circle class="st0" cx="464" cy="445" r="3.5"/>
	<circle class="st0" cx="464" cy="355" r="3.5"/>
	<circle class="st0" cx="464" cy="427" r="3.5"/>
	<circle class="st0" cx="464" cy="409" r="3.5"/>
	<circle class="st0" cx="464" cy="391" r="3.5"/>
	<circle class="st0" cx="464" cy="373" r="3.5"/>
	<circle class="st0" cx="446" cy="445" r="3.5"/>
	<circle class="st0" cx="446" cy="355" r="3.5"/>
	<circle class="st0" cx="446" cy="427" r="3.5"/>
	<circle class="st0" cx="446" cy="409" r="3.5"/>
	<circle class="st0" cx="446" cy="391" r="3.5"/>
	<circle class="st0" cx="446" cy="373" r="3.5"/>
	<circle class="st0" cx="428" cy="445" r="3.5"/>
	<circle class="st0" cx="428" cy="355" r="3.5"/>
	<circle class="st0" cx="428" cy="427" r="3.5"/>
	<circle class="st0" cx="428" cy="409" r="3.5"/>
	<circle class="st0" cx="428" cy="391" r="3.5"/>
	<circle class="st0" cx="428" cy="373" r="3.5"/>
	<circle class="st0" cx="410" cy="445" r="3.5"/>
	<circle class="st0" cx="410" cy="355" r="3.5"/>
	<circle class="st0" cx="410" cy="427" r="3.5"/>
	<circle class="st0" cx="410" cy="409" r="3.5"/>
	<circle class="st0" cx="410" cy="391" r="3.5"/>
	<circle class="st0" cx="410" cy="373" r="3.5"/>
	<circle class="st0" cx="392" cy="445" r="3.5"/>
	<circle class="st0" cx="392" cy="355" r="3.5"/>
	<circle class="st0" cx="392" cy="427" r="3.5"/>
	<circle class="st0" cx="392" cy="409" r="3.5"/>
	<circle class="st0" cx="392" cy="391" r="3.5"/>
	<circle class="st0" cx="392" cy="373" r="3.5"/>
	<circle class="st0" cx="374" cy="355" r="3.5"/>
	<circle class="st0" cx="374" cy="427" r="3.5"/>
	<circle class="st0" cx="374" cy="409" r="3.5"/>
	<circle class="st0" cx="374" cy="391" r="3.5"/>
	<circle class="st0" cx="374" cy="373" r="3.5"/>
	<circle class="st0" cx="356" cy="355" r="3.5"/>
	<circle class="st0" cx="356" cy="409" r="3.5"/>
	<circle class="st0" cx="356" cy="391" r="3.5"/>
	<circle class="st0" cx="356" cy="373" r="3.5"/>
	<circle class="st0" cx="338" cy="355" r="3.5"/>
	<circle class="st0" cx="338" cy="391" r="3.5"/>
	<circle class="st0" cx="338" cy="373" r="3.5"/>
	<circle class="st0" cx="320" cy="355" r="3.5"/>
	<circle class="st0" cx="302" cy="355" r="3.5"/>
	<circle class="st0" cx="320" cy="373" r="3.5"/>
</g>
<circle class="st0" cx="608" cy="445" r="3.5"/>
<circle class="st0" cx="608" cy="355" r="3.5"/>
<circle class="st0" cx="608" cy="427" r="3.5"/>
<circle class="st0" cx="608" cy="409" r="3.5"/>
<circle class="st0" cx="608" cy="391" r="3.5"/>
<circle class="st0" cx="608" cy="373" r="3.5"/>
<circle class="st0" cx="590" cy="445" r="3.5"/>
<circle class="st0" cx="590" cy="355" r="3.5"/>
<circle class="st0" cx="590" cy="427" r="3.5"/>
<circle class="st0" cx="590" cy="409" r="3.5"/>
<circle class="st0" cx="590" cy="391" r="3.5"/>
<circle class="st0" cx="590" cy="373" r="3.5"/>
<circle class="st0" cx="572" cy="445" r="3.5"/>
<circle class="st0" cx="572" cy="355" r="3.5"/>
<circle class="st0" cx="572" cy="427" r="3.5"/>
<circle class="st0" cx="572" cy="409" r="3.5"/>
<circle class="st0" cx="572" cy="391" r="3.5"/>
<circle class="st0" cx="572" cy="373" r="3.5"/>
<circle class="st0" cx="554" cy="445" r="3.5"/>
<circle class="st0" cx="554" cy="355" r="3.5"/>
<circle class="st0" cx="554" cy="427" r="3.5"/>
<circle class="st0" cx="554" cy="409" r="3.5"/>
<circle class="st0" cx="554" cy="391" r="3.5"/>
<circle class="st0" cx="554" cy="373" r="3.5"/>
<circle class="st0" cx="536" cy="445" r="3.5"/>
<circle class="st0" cx="536" cy="355" r="3.5"/>
<circle class="st0" cx="536" cy="427" r="3.5"/>
<circle class="st0" cx="536" cy="409" r="3.5"/>
<circle class="st0" cx="536" cy="391" r="3.5"/>
<circle class="st0" cx="536" cy="373" r="3.5"/>
<circle class="st0" cx="518" cy="445" r="3.5"/>
<circle class="st0" cx="518" cy="355" r="3.5"/>
<circle class="st0" cx="518" cy="427" r="3.5"/>
<circle class="st0" cx="518" cy="409" r="3.5"/>
<circle class="st0" cx="518" cy="391" r="3.5"/>
<circle class="st0" cx="518" cy="373" r="3.5"/>
<circle class="st0" cx="607.6" cy="142.6" r="3.5"/>
<circle class="st0" cx="517.6" cy="142.1" r="3.5"/>
<circle class="st0" cx="589.6" cy="142.5" r="3.5"/>
<circle class="st0" cx="571.6" cy="142.4" r="3.5"/>
<circle class="st0" cx="553.6" cy="142.3" r="3.5"/>
<circle class="st0" cx="535.6" cy="142.2" r="3.5"/>
<circle class="st0" cx="517.5" cy="160.1" r="3.5"/>
<circle class="st0" cx="589.5" cy="160.5" r="3.5"/>
<circle class="st0" cx="571.5" cy="160.4" r="3.5"/>
<circle class="st0" cx="553.5" cy="160.3" r="3.5"/>
<circle class="st0" cx="535.5" cy="160.2" r="3.5"/>
<circle class="st0" cx="517.4" cy="178.1" r="3.5"/>
<circle class="st0" cx="571.4" cy="178.4" r="3.5"/>
<circle class="st0" cx="553.4" cy="178.3" r="3.5"/>
<circle class="st0" cx="535.4" cy="178.2" r="3.5"/>
<circle class="st0" cx="517.3" cy="196.1" r="3.5"/>
<circle class="st0" cx="553.3" cy="196.3" r="3.5"/>
<circle class="st0" cx="535.3" cy="196.2" r="3.5"/>
<circle class="st0" cx="517.2" cy="214.1" r="3.5"/>
<circle class="st0" cx="517.1" cy="232.1" r="3.5"/>
<circle class="st0" cx="535.2" cy="214.2" r="3.5"/>
<g>
	<circle class="st0" cx="501.6" cy="142" r="3.5"/>
	<circle class="st0" cx="411.6" cy="141.4" r="3.5"/>
	<circle class="st0" cx="483.6" cy="141.8" r="3.5"/>
	<circle class="st0" cx="465.6" cy="141.7" r="3.5"/>
	<circle class="st0" cx="447.6" cy="141.6" r="3.5"/>
	<circle class="st0" cx="429.6" cy="141.5" r="3.5"/>
	<circle class="st0" cx="501.5" cy="160" r="3.5"/>
	<circle class="st0" cx="411.5" cy="159.4" r="3.5"/>
	<circle class="st0" cx="483.5" cy="159.8" r="3.5"/>
	<circle class="st0" cx="465.5" cy="159.7" r="3.5"/>
	<circle class="st0" cx="447.5" cy="159.6" r="3.5"/>
	<circle class="st0" cx="429.5" cy="159.5" r="3.5"/>
	<circle class="st0" cx="501.4" cy="178" r="3.5"/>
	<circle class="st0" cx="411.4" cy="177.4" r="3.5"/>
	<circle class="st0" cx="483.4" cy="177.8" r="3.5"/>
	<circle class="st0" cx="465.4" cy="177.7" r="3.5"/>
	<circle class="st0" cx="447.4" cy="177.6" r="3.5"/>
	<circle class="st0" cx="429.4" cy="177.5" r="3.5"/>
	<circle class="st0" cx="501.3" cy="196" r="3.5"/>
	<circle class="st0" cx="411.3" cy="195.4" r="3.5"/>
	<circle class="st0" cx="483.3" cy="195.8" r="3.5"/>
	<circle class="st0" cx="465.3" cy="195.7" r="3.5"/>
	<circle class="st0" cx="447.3" cy="195.6" r="3.5"/>
	<circle class="st0" cx="429.3" cy="195.5" r="3.5"/>
	<circle class="st0" cx="501.2" cy="214" r="3.5"/>
	<circle class="st0" cx="411.2" cy="213.4" r="3.5"/>
	<circle class="st0" cx="483.2" cy="213.8" r="3.5"/>
	<circle class="st0" cx="465.2" cy="213.7" r="3.5"/>
	<circle class="st0" cx="447.2" cy="213.6" r="3.5"/>
	<circle class="st0" cx="429.2" cy="213.5" r="3.5"/>
	<circle class="st0" cx="501.1" cy="231.9" r="3.5"/>
	<circle class="st0" cx="411.1" cy="231.4" r="3.5"/>
	<circle class="st0" cx="483.1" cy="231.8" r="3.5"/>
	<circle class="st0" cx="465.1" cy="231.7" r="3.5"/>
	<circle class="st0" cx="447.1" cy="231.6" r="3.5"/>
	<circle class="st0" cx="429.1" cy="231.5" r="3.5"/>
	<circle class="st0" cx="500.9" cy="249.9" r="3.5"/>
	<circle class="st0" cx="410.9" cy="249.4" r="3.5"/>
	<circle class="st0" cx="482.9" cy="249.8" r="3.5"/>
	<circle class="st0" cx="464.9" cy="249.7" r="3.5"/>
	<circle class="st0" cx="446.9" cy="249.6" r="3.5"/>
	<circle class="st0" cx="428.9" cy="249.5" r="3.5"/>
	<circle class="st0" cx="410.8" cy="267.4" r="3.5"/>
	<circle class="st0" cx="482.8" cy="267.8" r="3.5"/>
	<circle class="st0" cx="464.8" cy="267.7" r="3.5"/>
	<circle class="st0" cx="446.8" cy="267.6" r="3.5"/>
	<circle class="st0" cx="428.8" cy="267.5" r="3.5"/>
	<circle class="st0" cx="410.7" cy="285.4" r="3.5"/>
	<circle class="st0" cx="464.7" cy="285.7" r="3.5"/>
	<circle class="st0" cx="446.7" cy="285.6" r="3.5"/>
	<circle class="st0" cx="428.7" cy="285.5" r="3.5"/>
	<circle class="st0" cx="410.6" cy="303.4" r="3.5"/>
	<circle class="st0" cx="446.6" cy="303.6" r="3.5"/>
	<circle class="st0" cx="428.6" cy="303.5" r="3.5"/>
	<circle class="st0" cx="410.5" cy="321.4" r="3.5"/>
	<circle class="st0" cx="410.4" cy="339.4" r="3.5"/>
	<circle class="st0" cx="428.5" cy="321.5" r="3.5"/>
</g>
</svg>
