<?xml version="1.0" standalone="no"?>
<!DOCTYPE svg PUBLIC "-//W3C//DTD SVG 20010904//EN"
 "http://www.w3.org/TR/2001/REC-SVG-20010904/DTD/svg10.dtd">
<svg version="1.0" xmlns="http://www.w3.org/2000/svg"
 width="500.000000pt" height="500.000000pt" viewBox="0 0 500.000000 500.000000"
 preserveAspectRatio="xMidYMid meet">
<metadata>
Created by potrace 1.14, written by Peter Selinger 2001-2017
</metadata>
<g transform="translate(0.000000,500.000000) scale(0.100000,-0.100000)"
fill="#000000" stroke="none">
<path d="M0 2500 l0 -2500 2500 0 2500 0 0 2500 0 2500 -2500 0 -2500 0 0
-2500z m2743 1429 c235 -20 360 -72 493 -204 130 -128 187 -261 188 -440 1
-117 -13 -184 -60 -280 -41 -85 -99 -154 -176 -211 l-57 -42 31 -13 c62 -25
174 -107 225 -162 110 -121 159 -273 150 -461 -9 -191 -71 -337 -197 -466 -81
-82 -160 -130 -278 -170 -168 -56 -236 -62 -792 -67 -349 -4 -528 -2 -579 6
-136 21 -213 82 -246 194 -22 76 -22 2048 0 2124 31 103 113 173 226 192 76
12 930 13 1072 0z"/>
<path d="M2010 3204 l0 -266 303 4 c357 5 383 10 459 88 72 75 94 171 63 276
-38 130 -159 164 -581 164 l-244 0 0 -266z"/>
<path d="M2010 2185 l0 -305 295 0 c393 0 488 19 577 118 47 52 62 100 62 197
0 164 -73 240 -266 279 -60 13 -143 16 -373 16 l-295 0 0 -305z"/>
</g>
</svg>
