<svg id="Layer_1" data-name="Layer 1" xmlns="http://www.w3.org/2000/svg" viewBox="0 0 346.19 99.26"><defs><style>.cls-1{fill:#2fbb96;fill-rule:evenodd;}.cls-2{font-size:43.16px;fill:#fff;font-family:CenturyGothicPro-Bold, Century Gothic Pro;font-weight:700;}</style></defs><path class="cls-1" d="M193.83,516.84a18.35,18.35,0,0,1-5.78-2.16L160.9,499a18.32,18.32,0,0,1-9.21-16V460.5h3.43v22.55a14.88,14.88,0,0,0,7.5,13l27.15,15.68a14.86,14.86,0,0,0,4.06,1.62v3.51Zm-28.4-49.47v15.68a4.56,4.56,0,0,0,2.35,4.05l13.57,7.84,13.57,7.84a4.59,4.59,0,0,0,4.69,0l13.57-7.84,13.58-7.84a4.55,4.55,0,0,0,2.34-4.05V463.93H191.7v6.88h30.52V478a6.51,6.51,0,0,1-3.29,5.7l-18.37,10.61a6.53,6.53,0,0,1-6.59,0L175.6,483.68a6.51,6.51,0,0,1-3.29-5.7V456.77a6.53,6.53,0,0,1,3.29-5.71L194,440.46a6.53,6.53,0,0,1,6.59,0l16.86,9.73h11.44a4.6,4.6,0,0,0-2.1-2.55l-13.58-7.83L199.61,432a4.59,4.59,0,0,0-4.69,0l-13.57,7.84-13.57,7.83a4.59,4.59,0,0,0-2.35,4.06v15.67Zm67-17.18a8,8,0,0,0-3.93-5.52L201.32,429a8,8,0,0,0-8.11,0l-27.15,15.67a8,8,0,0,0-4.06,7v31.35a8,8,0,0,0,4.06,7l27.15,15.67a8,8,0,0,0,8.11,0l27.15-15.67a8,8,0,0,0,4.06-7V460.5h-43.1l-.19.08h0l-.15.08h0l-.14.1h0l0,0h0l-.09.08h0l0,0h0l0,0h0l0,0h0l0,0h0l0,0h0l0,0h0l0,0h0l0,0h0l0,0h0l0,0h0l0,0h0l0,0h0l0,0h0l0,0h0l0,0h0l0,0v0h0l0,0h0l0,0v0h0l0,0h0v0h0v0h0v0h0v0h0v.09h0v0h0v0h0v0h0v0h0v0h0v0h0v.05h0v10.31h0v0h0v.05h0v0h0v0h0v.05h0v0h0v0h0v.09h0a.31.31,0,0,0,0,.08v0h0l0,.08h0v0h0a.54.54,0,0,1,.05.11h0l.06.11h0l0,0,.07.1h0l0,.07h0l0,0h0l0,0h0l.06.06h0l.12.12h0l0,0h0l.1.08h0l0,0h0l0,0h0l.07,0h0l0,0,0,0,0,0h0l0,0,0,0h.08l0,0H218.8V478a3.08,3.08,0,0,1-1.58,2.74L208,486l-9.19,5.3a3.11,3.11,0,0,1-3.17,0L186.5,486l-9.19-5.31a3.1,3.1,0,0,1-1.58-2.74V456.77a3.13,3.13,0,0,1,1.58-2.75l9.19-5.3,9.18-5.3a3.11,3.11,0,0,1,3.17,0l9.19,5.3,8.49,4.9h16v-2.06h0v-.13h0v-.12h0v-.14h0V451h0v-.12h0v-.12h0v-.14h0v-.12h0v-.12h0v-.13h0v0Zm-25.92-30.12,27.15,15.67a18.32,18.32,0,0,1,9.21,16v1.92h-3.43V451.7a14.91,14.91,0,0,0-7.5-13L204.76,423a14.88,14.88,0,0,0-15,0l-27.15,15.67a14.91,14.91,0,0,0-7.5,13v1.92h-3.43V451.7a18.32,18.32,0,0,1,9.21-16l27.15-15.67a18.3,18.3,0,0,1,18.43,0Zm36.36,40.43v22.55a18.32,18.32,0,0,1-9.21,16l-27.15,15.67a18.39,18.39,0,0,1-5.77,2.16v-3.51a14.93,14.93,0,0,0,4-1.62L231.91,496a14.88,14.88,0,0,0,7.5-13V460.5Z" transform="translate(-151.69 -417.58)"/><text class="cls-2" transform="translate(120.05 60.64)">Grapherex</text></svg>